# xmcd
#
# Track frame offsets:
#	150
#	20381
#	40493
#	62824
#	87327
#	111921
#	133604
#	150892
#	170522
#	190650
#	213242
#	235575
#
# Disc length: 3408 seconds
#
# Revision: 19
# Processed by: cddbd v1.5.2PL0 Copyright (c) Steve Scherf et al.
# Submitted via: Jack! The Knife 20 Magnifico
#
DISCID=950d4e0c
DTITLE=Deep Purple - Abandon
DYEAR=1998
DGENRE=Hard Rock
TTITLE0=Any Fule Kno That
TTITLE1=Almost Human
TTITLE2=Don't Make Me Happy
TTITLE3=Seventh Heaven
TTITLE4=Watching The Sky
TTITLE5=Fingers To The Bone
TTITLE6=Jack Ruby
TTITLE7=She Was
TTITLE8=Whatsername
TTITLE9='69
TTITLE10=Evil Louie
TTITLE11=Bludsucker
EXTD=Deep Purple and Roger Glover
EXTT0=Gillan, Glover, Lord, Morse, Paice
EXTT1=Gillan, Glover, Lord, Morse, Paice
EXTT2=Gillan, Glover, Lord, Morse, Paice
EXTT3=Gillan, Glover, Lord, Morse, Paice
EXTT4=Gillan, Glover, Lord, Morse, Paice
EXTT5=Gillan, Glover, Lord, Morse, Paice
EXTT6=Gillan, Glover, Lord, Morse, Paice
EXTT7=Gillan, Glover, Lord, Morse, Paice
EXTT8=Gillan, Glover, Lord, Morse, Paice
EXTT9=Gillan, Glover, Lord, Morse, Paice
EXTT10=Gillan, Glover, Lord, Morse, Paice
EXTT11=Blackmore, Gillan, Glover, Lord, Paice
PLAYORDER=
